# xmcd CD database file
#
# Track frame offsets:
#	150
#	11736
#	26291
#	35906
#	49233
#	60664
#	74977
#	83639
#	96498
#	107674
#	116547
#	127202
#	140604
#	151115
#	159809
#	170528
#	182944
#	195480
#
# Disc length: 2730 seconds
#
# Revision: 0
# Processed by: cddbd v1.5.1PL0 Copyright (c) Steve Scherf et al.
# Submitted via: CDex 1.51
#
DISCID=fe0aa812
DTITLE=oregano - Zrcadleni
DYEAR=1993
DGENRE=Country
TTITLE0=Zrcadlo
TTITLE1=Prokleti
TTITLE2=Voskova figurka
TTITLE3=Strach
TTITLE4=Zaluj slunci
TTITLE5=Nebesti kavalerove
TTITLE6=Prometheus
TTITLE7=Mavam
TTITLE8=Fletna
TTITLE9=Jdou
TTITLE10=Gimme That
TTITLE11=Poutnici
TTITLE12=Dest
TTITLE13=Podzimni
TTITLE14=Zrcadlo
TTITLE15=Pisen pro dva
TTITLE16=Magdalena
TTITLE17=Bledemodrej vlak
EXTD=YEAR: 1993
EXTT0=
EXTT1=
EXTT2=
EXTT3=
EXTT4=
EXTT5=
EXTT6=
EXTT7=
EXTT8=
EXTT9=
EXTT10=
EXTT11=
EXTT12=
EXTT13=
EXTT14=
EXTT15=
EXTT16=
EXTT17=
PLAYORDER=
